Coordinates
version=1
nRows=17
nColumns=40
inDegrees=yes

Units are S.I. units (second, meters, Newtons, ...)
Angles are in degrees.

endheader
time	pelvis_tilt	pelvis_list	pelvis_rotation	pelvis_tx	pelvis_ty	pelvis_tz	hip_flexion_r	hip_adduction_r	hip_rotation_r	knee_angle_r	knee_angle_r_beta	ankle_angle_r	subtalar_angle_r	mtp_angle_r	hip_flexion_l	hip_adduction_l	hip_rotation_l	knee_angle_l	knee_angle_l_beta	ankle_angle_l	subtalar_angle_l	mtp_angle_l	lumbar_extension	lumbar_bending	lumbar_rotation	arm_flex_r	arm_add_r	arm_rot_r	elbow_flex_r	pro_sup_r	wrist_flex_r	wrist_dev_r	arm_flex_l	arm_add_l	arm_rot_l	elbow_flex_l	pro_sup_l	wrist_flex_l	wrist_dev_l
      8.89000000	     -3.10500203	     -6.23962597	      1.37272182	      0.95801702	      0.90734754	      0.54335007	     14.93278778	      9.01077275	     -7.78551512	     31.34374872	     31.34374872	     19.52084137	    -14.83979835	      2.48461902	     31.54248200	    -17.65908918	      7.34964245	     72.00808333	     72.00808333	      0.20157001	    -19.40979453	     17.26197989	    -10.50583297	      4.29936372	      0.82993926	     25.59825193	    -19.28337359	    -11.45771272	     70.60740601	     45.02250716	      0.00000000	      0.00000000	     -4.26803176	     -8.55439223	     10.74538017	     22.40962182	     45.50784706	      0.00000000	      0.00000000
      8.91257143	     -3.04899369	     -6.20473421	      2.15382912	      0.95666673	      0.90731041	      0.54387625	     14.63302327	      8.97769778	     -8.24835187	     31.23033834	     31.23033834	     19.71786657	    -15.06313246	      2.63791681	     33.09291733	    -17.15742963	      8.15993140	     72.37267281	     72.37267281	      0.81040908	    -19.48320379	     18.26794991	    -10.60223194	      4.28685325	      1.08521607	     28.52684054	    -19.11863404	    -11.44712965	     72.22814420	     44.99001629	      0.00000000	      0.00000000	     -6.58025105	     -8.38307216	     11.11475973	     22.12789123	     45.37682474	      0.00000000	      0.00000000
      8.93514286	     -3.07245905	     -6.07526915	      2.95872896	      0.95515275	      0.90781294	      0.54393028	     14.29600919	      8.78782143	     -8.81273678	     30.88944382	     30.88944382	     19.86263095	    -15.07265588	      2.80252510	     34.47009081	    -16.44809474	      8.80955473	     71.94923559	     71.94923559	      2.50156804	    -19.51868958	     20.71271392	    -10.60156636	      4.20991342	      1.26093782	     31.63927196	    -19.17739426	    -10.76306849	     73.28691650	     44.97169175	      0.00000000	      0.00000000	     -9.16641988	     -8.58901971	     12.12795879	     23.59071087	     45.07994030	      0.00000000	      0.00000000
      8.95771429	     -3.14505897	     -5.93279681	      3.82047957	      0.95357668	      0.90900934	      0.54358901	     13.78000996	      8.57714512	     -9.42752410	     30.09974069	     30.09974069	     19.78911043	    -14.95129043	      2.92467805	     35.50838401	    -15.75817099	      9.21677806	     70.46358638	     70.46358638	      3.85216573	    -19.53561678	     20.80294889	    -10.59876196	      4.13066064	      1.61068390	     34.43688634	    -19.19130967	    -10.67820812	     74.69166089	     44.94227266	      0.00000000	      0.00000000	    -10.87878645	     -8.55049867	     12.58355492	     23.58956134	     44.95535756	      0.00000000	      0.00000000
      8.98028571	     -3.32054198	     -5.64051711	      4.69310567	      0.95179003	      0.91050051	      0.54275597	     13.31066357	      8.14396204	    -10.13654191	     29.19747873	     29.19747873	     19.46164602	    -14.76654774	      2.35653823	     36.32748609	    -14.84059754	      9.45054020	     68.10695964	     68.10695964	      5.50784795	    -19.51850620	     21.12137224	    -10.47681643	      3.94352851	      1.80552015	     37.47879955	    -19.39819392	     -9.75608363	     75.54369836	     45.04653435	      0.00000000	      0.00000000	    -13.29907748	    -10.03273174	     20.03495088	     26.91449324	     43.80629253	      0.00000000	      0.00000000
      9.00285714	     -3.52867802	     -5.30322227	      5.56635312	      0.94994764	      0.91243282	      0.54149121	     12.74998302	      7.66153472	    -10.83983791	     28.09193460	     28.09193460	     19.27390302	    -14.39750458	      2.53876427	     36.78313833	    -13.83656923	      9.57360107	     64.80151147	     64.80151147	      6.96114607	    -19.47306100	     20.73005222	    -10.38915421	      3.70242574	      2.22169296	     40.14031823	    -19.62326684	     -9.63445250	     76.85344233	     45.01580378	      0.00000000	      0.00000000	    -14.36943375	    -10.02966572	     20.15087662	     27.04254139	     43.78586230	      0.00000000	      0.00000000
      9.02542857	     -4.06686713	     -4.90989278	      6.44575119	      0.94783931	      0.91401039	      0.53981521	     12.61834282	      7.07256334	    -11.48437172	     27.11545829	     27.11545829	     19.02117601	    -14.30862057	      2.76776268	     37.31000220	    -12.67113134	      9.66066643	     60.75445197	     60.75445197	      8.20743156	    -19.35353511	     20.45434079	     -9.88167350	      3.38535061	      2.79610364	     42.66857342	    -20.12349594	     -9.65418202	     77.79423751	     44.99842257	      0.00000000	      0.00000000	    -15.08597329	    -10.03687625	     20.20675556	     27.10623908	     43.76913539	      0.00000000	      0.00000000
      9.04800000	     -4.17177905	     -4.44661215	      7.33354971	      0.94618796	      0.91627554	      0.53772598	     11.71296867	      6.33655622	    -12.66894329	     25.73378945	     25.73378945	     18.71486792	    -13.09656111	      1.92478026	     36.75675512	    -11.61903078	      9.51049583	     55.61044719	     55.61044719	      7.81642932	    -19.20112454	     15.94920482	     -9.95768981	      3.06861303	      2.25995736	     45.68282335	    -20.09633967	     -7.18648975	     78.99399911	     44.91593383	      0.00000000	      0.00000000	    -17.05256398	    -10.60393267	     20.87411190	     30.16532033	     43.68773717	      0.00000000	      0.00000000
      9.07057143	     -4.46682523	     -4.07876122	      8.17489157	      0.94448544	      0.91812316	      0.53546758	     11.02141783	      5.83235629	    -13.39024932	     24.28739581	     24.28739581	     18.22031597	    -12.76582522	      1.42633640	     36.14646944	    -10.64053977	      9.39996819	     49.91544744	     49.91544744	      6.96115109	    -18.88857513	     11.44875097	     -9.72709499	      2.81958769	      2.42205155	     48.37450319	    -20.20754567	     -6.53936123	     79.41031711	     44.93671382	      0.00000000	      0.00000000	    -17.86042702	    -10.96257880	     22.25088471	     31.38878508	     43.63583190	      0.00000000	      0.00000000
      9.09314286	     -4.76288370	     -3.64811281	      8.97699275	      0.94289397	      0.91975360	      0.53283793	     10.40060918	      5.22272581	    -14.13535463	     23.07521397	     23.07521397	     18.04946828	    -12.25712111	      1.54347740	     35.36058511	     -9.50254908	      9.41900757	     44.15420366	     44.15420366	      7.24556246	    -18.01499679	     11.10291617	     -9.55274066	      2.46621694	      2.67563695	     50.67259620	    -20.35576328	     -6.27919555	     80.35454234	     44.91301537	      0.00000000	      0.00000000	    -18.17096845	    -10.91937171	     22.45405366	     31.54007131	     43.62623743	      0.00000000	      0.00000000
      9.11571429	     -5.00750031	     -3.40657790	      9.75133886	      0.94164385	      0.92081989	      0.53005140	      9.68301651	      4.80549780	    -15.06559565	     21.79737172	     21.79737172	     17.74399857	    -11.51362095	      0.79365531	     34.20952535	     -8.81922874	      9.05279588	     37.85928926	     37.85928926	      5.24944138	    -16.79884939	      5.23701965	     -9.32542746	      2.37247304	      2.71541197	     53.05782801	    -20.67455228	     -4.82200451	     81.00664221	     44.90121694	      0.00000000	      0.00000000	    -18.75486701	    -11.16261291	     23.56735328	     32.66145117	     43.63669616	      0.00000000	      0.00000000
      9.13828571	     -5.34077868	     -3.19712754	     10.45022278	      0.94051189	      0.92136411	      0.52719141	      9.21288049	      4.45869896	    -15.64087126	     20.81542832	     20.81542832	     17.68861310	    -11.27959007	      0.89575863	     33.31858782	     -8.11713326	      8.63065673	     32.36730662	     32.36730662	      5.57149868	    -14.18897061	      5.73005942	     -9.01368359	      2.17951387	      2.98924015	     54.99625094	    -20.71541735	     -4.73128636	     81.71928099	     44.88714053	      0.00000000	      0.00000000	    -18.86194329	    -11.06454520	     23.67859947	     32.70727297	     43.63627818	      0.00000000	      0.00000000
      9.16085714	     -5.33459401	     -3.18758710	     11.12579333	      0.93998089	      0.92183314	      0.52411943	      8.22263575	      4.39450777	    -16.46156450	     19.57829166	     19.57829166	     17.68115287	    -10.47038445	      0.73616486	     32.19933440	     -7.79381464	      7.81344619	     27.51873252	     27.51873252	      5.97194028	    -10.50363175	      5.95421428	     -8.97896893	      2.33956064	      3.05639153	     56.84738823	    -20.68450872	     -4.19646660	     82.51377236	     44.86114871	      0.00000000	      0.00000000	    -18.99993824	    -10.91653521	     23.91879087	     32.76859939	     43.63879122	      0.00000000	      0.00000000
      9.18342857	     -5.58664170	     -3.21315243	     11.71214322	      0.93946033	      0.92145045	      0.52095507	      7.78641062	      4.30136377	    -16.95607579	     18.85259494	     18.85259494	     17.75451875	    -10.29014297	      0.65738232	     31.43410834	     -7.33692066	      7.12354813	     23.35858920	     23.35858920	      6.04280066	     -7.58077345	      6.58935712	     -8.64514234	      2.39576165	      3.24645995	     58.36111319	    -20.67270423	     -3.96850910	     83.07194119	     44.84614117	      0.00000000	      0.00000000	    -19.01709991	    -10.80091195	     24.02022991	     32.81136795	     43.64096654	      0.00000000	      0.00000000
      9.20600000	     -5.54123148	     -3.25666902	     12.23849372	      0.93951675	      0.92122828	      0.51774341	      6.90825219	      4.32110219	    -17.47872127	     17.95747070	     17.95747070	     17.85076535	     -9.83738694	      0.47762671	     30.54151386	     -7.04119831	      6.03636259	     20.15797766	     20.15797766	      6.25615456	     -4.19602288	      7.10339893	     -8.60560499	      2.47343899	      3.30490691	     59.59720892	    -20.53581453	     -3.58344959	     83.68629593	     44.82498495	      0.00000000	      0.00000000	    -19.04441355	    -10.69184955	     24.15701491	     32.76015988	     43.64475017	      0.00000000	      0.00000000
      9.22857143	     -5.56745044	     -3.52547616	     12.72427079	      0.93975948	      0.92046512	      0.51451440	      6.19876284	      4.54764875	    -18.06980474	     17.15844230	     17.15844230	     17.85309994	     -9.33095549	     -0.06561489	     30.21482755	     -7.01622157	      4.63693234	     18.30504824	     18.30504824	      6.67502480	     -0.46797523	      7.40841455	     -8.44678200	      2.75556280	      3.35873813	     60.66990096	    -20.49162713	     -3.10019417	     84.39938498	     44.80819972	      0.00000000	      0.00000000	    -18.95522030	    -10.58555678	     24.36669195	     32.56497848	     43.67679906	      0.00000000	      0.00000000
      9.25114286	     -5.79350476	     -3.77401787	     13.18321102	      0.93987185	      0.91935485	      0.51105848	      5.97918304	      4.64869176	    -18.44249010	     16.89678137	     16.89678137	     18.00836867	     -9.39545499	     -0.13958884	     30.15371334	     -6.66551369	      4.37055537	     17.03678353	     17.03678353	      6.41166526	      0.82235157	      7.59398561	     -8.09561111	      2.92032558	      3.39719331	     61.53501938	    -20.42344101	     -3.10785597	     84.79897110	     44.80196936	      0.00000000	      0.00000000	    -18.76757556	    -10.59146063	     24.37748564	     32.57033571	     43.68719984	      0.00000000	      0.00000000
